<svg width="12" height="9" viewBox="0 0 12 9" fill="none" xmlns="http://www.w3.org/2000/svg">
<path d="M2.90324 4.80012C2.90389 4.85283 2.89432 4.90514 2.8751 4.95398C2.85587 5.00281 2.82738 5.04717 2.79131 5.08445C2.75523 5.12172 2.7123 5.15116 2.66504 5.17103C2.61778 5.19089 2.56716 5.20078 2.51614 5.2001H0.387112C0.315199 5.1995 0.244796 5.17871 0.183432 5.13997C0.122068 5.10122 0.0720494 5.04596 0.038725 4.98011C0.00773679 4.91305 -0.0050308 4.83855 0.00178745 4.76458C0.00860569 4.6906 0.0347533 4.61993 0.0774346 4.56012C0.420009 4.08495 0.877133 3.71086 1.40324 3.47515C1.17717 3.26132 1.00348 2.99507 0.896457 2.69832C0.789435 2.40157 0.752144 2.08279 0.787651 1.76824C0.823159 1.45368 0.930451 1.15234 1.1007 0.889002C1.27094 0.625668 1.49928 0.407874 1.7669 0.253546C2.03453 0.0992171 2.3338 0.0127668 2.64008 0.00130944C2.94636 -0.0101479 3.25089 0.0537155 3.52862 0.187643C3.80634 0.321571 4.04932 0.521734 4.23755 0.771659C4.42577 1.02158 4.55387 1.31412 4.6113 1.6252C4.62562 1.70622 4.61568 1.78983 4.58283 1.86487C4.54998 1.9399 4.49577 2.00281 4.42743 2.04519C3.8016 2.42866 3.32563 3.02663 3.08227 3.73514C2.9623 4.07645 2.90169 4.437 2.90324 4.80012ZM11.9226 4.56012C11.58 4.08495 11.1229 3.71086 10.5968 3.47515C10.8228 3.26132 10.9965 2.99507 11.1036 2.69832C11.2106 2.40157 11.2479 2.08279 11.2124 1.76824C11.1769 1.45368 11.0696 1.15234 10.8993 0.889002C10.7291 0.625668 10.5007 0.407874 10.2331 0.253546C9.96549 0.0992171 9.66622 0.0127668 9.35994 0.00130944C9.05366 -0.0101479 8.74912 0.0537155 8.4714 0.187643C8.19367 0.321571 7.9507 0.521734 7.76247 0.771659C7.57424 1.02158 7.44614 1.31412 7.38872 1.6252C7.3744 1.70622 7.38433 1.78983 7.41718 1.86487C7.45003 1.9399 7.50424 2.00281 7.57259 2.04519C8.19923 2.42767 8.67547 3.026 8.91775 3.73514C9.03771 4.07645 9.09832 4.437 9.09678 4.80012C9.09613 4.85283 9.1057 4.90514 9.12492 4.95398C9.14414 5.00281 9.17263 5.04717 9.20871 5.08445C9.24478 5.12172 9.28771 5.15116 9.33497 5.17103C9.38223 5.19089 9.43286 5.20078 9.48387 5.2001H11.6129C11.6848 5.2001 11.7553 5.17942 11.8164 5.14037C11.8776 5.10131 11.927 5.04544 11.9591 4.979C11.9913 4.91256 12.0049 4.83818 11.9984 4.76419C11.992 4.69021 11.9657 4.61955 11.9226 4.56012ZM7.41291 6.70506C7.79816 6.39995 8.08121 5.97778 8.2223 5.49787C8.36339 5.01797 8.35543 4.50445 8.19953 4.02946C8.04363 3.55447 7.74762 3.14189 7.35311 2.84969C6.9586 2.55749 6.4854 2.40035 6.00001 2.40035C5.51461 2.40035 5.04142 2.55749 4.6469 2.84969C4.25239 3.14189 3.95639 3.55447 3.80049 4.02946C3.64459 4.50445 3.63662 5.01797 3.77771 5.49787C3.9188 5.97778 4.20186 6.39995 4.58711 6.70506C3.83446 7.05034 3.22428 7.65959 2.86453 8.42502C2.8359 8.48585 2.82308 8.55332 2.82733 8.62082C2.83157 8.68831 2.85273 8.75351 2.88872 8.81001C2.92222 8.86796 2.96971 8.91593 3.02654 8.94924C3.08336 8.98254 3.14758 9.00003 3.21291 9H8.7871C8.85243 9.00003 8.91665 8.98254 8.97348 8.94924C9.0303 8.91593 9.07779 8.86796 9.11129 8.81001C9.14729 8.75351 9.16845 8.68831 9.17269 8.62082C9.17693 8.55332 9.16411 8.48585 9.13549 8.42502C8.77574 7.65959 8.16556 7.05034 7.41291 6.70506Z" fill="#888"/>
</svg>
