<svg width="10" height="10" viewBox="0 0 10 10" fill="none" xmlns="http://www.w3.org/2000/svg">
<path d="M0.555556 5.55556H3.88889C4.19444 5.55556 4.44444 5.30556 4.44444 5V0.555556C4.44444 0.25 4.19444 0 3.88889 0H0.555556C0.25 0 0 0.25 0 0.555556V5C0 5.30556 0.25 5.55556 0.555556 5.55556ZM0.555556 10H3.88889C4.19444 10 4.44444 9.75 4.44444 9.44444V7.22222C4.44444 6.91667 4.19444 6.66667 3.88889 6.66667H0.555556C0.25 6.66667 0 6.91667 0 7.22222V9.44444C0 9.75 0.25 10 0.555556 10ZM6.11111 10H9.44444C9.75 10 10 9.75 10 9.44444V5C10 4.69444 9.75 4.44444 9.44444 4.44444H6.11111C5.80556 4.44444 5.55556 4.69444 5.55556 5V9.44444C5.55556 9.75 5.80556 10 6.11111 10ZM5.55556 0.555556V2.77778C5.55556 3.08333 5.80556 3.33333 6.11111 3.33333H9.44444C9.75 3.33333 10 3.08333 10 2.77778V0.555556C10 0.25 9.75 0 9.44444 0H6.11111C5.80556 0 5.55556 0.25 5.55556 0.555556Z" fill="#888"/>
</svg>
