<?xml version="1.0" encoding="utf-8"?>
<!-- Generator: Adobe Illustrator 27.5.0, SVG Export Plug-In . SVG Version: 6.00 Build 0)  -->
<svg version="1.1" id="Layer_1" xmlns="http://www.w3.org/2000/svg" xmlns:xlink="http://www.w3.org/1999/xlink" x="0px" y="0px"
	 viewBox="0 0 15 17" style="enable-background:new 0 0 15 17;" xml:space="preserve">
<style type="text/css">
	.st0{fill:#fff;fill-opacity:0.7;}
	.st1{opacity:0.7;fill:#fff;}
</style>
<path class="st0" d="M0.3,11.8L1,13.1c0.4,0.7,1.4,1,2.2,0.6l0.4-0.2c0.5,0.4,1,0.7,1.5,0.9v0.5c0,0.9,0.7,1.6,1.6,1.6h1.6
	c0.9,0,1.6-0.7,1.6-1.6v-0.5c0.5-0.2,1-0.5,1.5-0.9l0.4,0.2c0.7,0.4,1.7,0.1,2.2-0.6l0.8-1.4c0.2-0.4,0.3-0.8,0.2-1.2
	c-0.1-0.4-0.4-0.8-0.7-1l-0.4-0.2c0.1-0.6,0.1-1.2,0-1.8l0.4-0.2c0.4-0.2,0.6-0.6,0.7-1C15,6,15,5.6,14.7,5.2L14,3.9
	c-0.4-0.7-1.4-1-2.2-0.6l-0.4,0.2c-0.5-0.4-1-0.7-1.5-0.9V2.2c0-0.9-0.7-1.6-1.6-1.6H6.7c-0.9,0-1.6,0.7-1.6,1.6v0.5
	c-0.5,0.2-1,0.5-1.5,0.9L3.2,3.3C2.5,2.9,1.5,3.1,1,3.9L0.3,5.2C0,5.6,0,6,0.1,6.4c0.1,0.4,0.4,0.8,0.7,1l0.4,0.2
	c-0.1,0.6-0.1,1.2,0,1.8L0.8,9.6c-0.4,0.2-0.6,0.6-0.7,1C0,11,0,11.4,0.3,11.8z M2.9,9.6C2.8,9.2,2.8,8.9,2.8,8.5
	c0-0.4,0-0.7,0.1-1.1c0-0.2,0-0.3,0-0.5C2.8,6.7,2.7,6.6,2.5,6.5L1.6,6l0.8-1.4l0.9,0.5c0.1,0.1,0.3,0.1,0.5,0.1s0.3-0.1,0.5-0.2
	C4.8,4.6,5.4,4.2,6.1,4c0.2,0,0.3-0.1,0.4-0.3c0.1-0.1,0.2-0.3,0.2-0.5v-1h1.6v1c0,0.2,0.1,0.3,0.2,0.5C8.5,3.8,8.7,3.9,8.9,4
	c0.7,0.2,1.4,0.6,1.9,1.1c0.1,0.1,0.3,0.2,0.5,0.2c0.2,0,0.3,0,0.5-0.1l0.9-0.5L13.4,6l-0.9,0.5c-0.1,0.1-0.3,0.2-0.3,0.4
	c-0.1,0.2-0.1,0.3,0,0.5c0.1,0.4,0.1,0.7,0.1,1.1c0,0.4,0,0.7-0.1,1.1c0,0.2,0,0.3,0,0.5c0.1,0.2,0.2,0.3,0.3,0.4l0.9,0.5l-0.8,1.4
	l-0.9-0.5c-0.1-0.1-0.3-0.1-0.5-0.1c-0.2,0-0.3,0.1-0.5,0.2c-0.5,0.5-1.2,0.9-1.9,1.1c-0.2,0-0.3,0.1-0.4,0.3
	c-0.1,0.1-0.2,0.3-0.2,0.5l0,1H6.7v-1c0-0.2-0.1-0.3-0.2-0.5c-0.1-0.1-0.2-0.2-0.4-0.3c-0.7-0.2-1.4-0.6-1.9-1.1
	c-0.1-0.1-0.3-0.2-0.5-0.2c-0.2,0-0.3,0-0.5,0.1l-0.9,0.5L1.6,11l0.9-0.5c0.1-0.1,0.3-0.2,0.3-0.4C2.9,9.9,2.9,9.8,2.9,9.6z"/>
<path class="st1" d="M7.5,11.4c-1.6,0-2.9-1.3-2.9-2.9c0-1.6,1.3-2.9,2.9-2.9s2.9,1.3,2.9,2.9C10.4,10.1,9.1,11.4,7.5,11.4z
	 M7.5,7.1c-0.8,0-1.4,0.6-1.4,1.4s0.6,1.4,1.4,1.4s1.4-0.6,1.4-1.4S8.3,7.1,7.5,7.1z"/>
</svg>
