<svg width="10" height="10" viewBox="0 0 10 10" fill="none" xmlns="http://www.w3.org/2000/svg">
<path d="M1.5 5C1.10218 5 0.720645 4.84197 0.43934 4.56066C0.158035 4.27936 0 3.89783 0 3.5V1.5C0 1.10218 0.158035 0.720645 0.43934 0.43934C0.720645 0.158035 1.10218 0 1.5 0H8.5C8.89783 0 9.27936 0.158035 9.56066 0.43934C9.84197 0.720645 10 1.10218 10 1.5V3.5C10 3.89783 9.84197 4.27936 9.56066 4.56066C9.27936 4.84197 8.89783 5 8.5 5C8.89783 5 9.27936 5.15804 9.56066 5.43934C9.84197 5.72064 10 6.10218 10 6.5V8.5C10 8.89783 9.84197 9.27936 9.56066 9.56066C9.27936 9.84197 8.89783 10 8.5 10H1.5C1.10218 10 0.720645 9.84197 0.43934 9.56066C0.158035 9.27936 0 8.89783 0 8.5V6.5C0 6.10218 0.158035 5.72064 0.43934 5.43934C0.720645 5.15804 1.10218 5 1.5 5V5ZM4 8C4.13261 8 4.25979 7.94732 4.35355 7.85355C4.44732 7.75979 4.5 7.63261 4.5 7.5C4.5 7.36739 4.44732 7.24022 4.35355 7.14645C4.25979 7.05268 4.13261 7 4 7C3.86739 7 3.74022 7.05268 3.64645 7.14645C3.55268 7.24022 3.5 7.36739 3.5 7.5C3.5 7.63261 3.55268 7.75979 3.64645 7.85355C3.74022 7.94732 3.86739 8 4 8V8ZM2.5 8C2.63261 8 2.75979 7.94732 2.85355 7.85355C2.94732 7.75979 3 7.63261 3 7.5C3 7.36739 2.94732 7.24022 2.85355 7.14645C2.75979 7.05268 2.63261 7 2.5 7C2.36739 7 2.24022 7.05268 2.14645 7.14645C2.05268 7.24022 2 7.36739 2 7.5C2 7.63261 2.05268 7.75979 2.14645 7.85355C2.24022 7.94732 2.36739 8 2.5 8ZM2.5 3C2.63261 3 2.75979 2.94732 2.85355 2.85355C2.94732 2.75979 3 2.63261 3 2.5C3 2.36739 2.94732 2.24022 2.85355 2.14645C2.75979 2.05268 2.63261 2 2.5 2C2.36739 2 2.24022 2.05268 2.14645 2.14645C2.05268 2.24022 2 2.36739 2 2.5C2 2.63261 2.05268 2.75979 2.14645 2.85355C2.24022 2.94732 2.36739 3 2.5 3ZM4 3C4.13261 3 4.25979 2.94732 4.35355 2.85355C4.44732 2.75979 4.5 2.63261 4.5 2.5C4.5 2.36739 4.44732 2.24022 4.35355 2.14645C4.25979 2.05268 4.13261 2 4 2C3.86739 2 3.74022 2.05268 3.64645 2.14645C3.55268 2.24022 3.5 2.36739 3.5 2.5C3.5 2.63261 3.55268 2.75979 3.64645 2.85355C3.74022 2.94732 3.86739 3 4 3V3Z" fill="#202731"/>
</svg>
