<svg width="15" height="17" viewBox="0 0 15 17" fill="none" xmlns="http://www.w3.org/2000/svg">
<path d="M0.252315 11.7743L1.04398 13.1439C1.46436 13.8699 2.47611 14.1422 3.20523 13.7218L3.62402 13.4796C4.08203 13.8399 4.58701 14.136 5.12502 14.3599V14.8333C5.12502 15.7065 5.83515 16.4167 6.70836 16.4167H8.29169C9.1649 16.4167 9.87502 15.7065 9.87502 14.8333V14.3599C10.4128 14.136 10.9178 13.8401 11.376 13.4804L11.7948 13.7226C12.5255 14.1422 13.5349 13.8715 13.9569 13.1439L14.7477 11.7751C14.9575 11.4115 15.0144 10.9795 14.9059 10.574C14.7974 10.1684 14.5324 9.82255 14.169 9.61229L13.7692 9.38113C13.8542 8.79732 13.8542 8.20427 13.7692 7.62046L14.169 7.38929C14.5322 7.17889 14.7971 6.83302 14.9056 6.42754C15.0141 6.02207 14.9573 5.59012 14.7477 5.22646L13.9569 3.85767C13.5365 3.12934 12.5255 2.85621 11.7948 3.27817L11.376 3.52042C10.918 3.16014 10.413 2.86397 9.87502 2.64009V2.16667C9.87502 1.29346 9.1649 0.583335 8.29169 0.583335H6.70836C5.83515 0.583335 5.12502 1.29346 5.12502 2.16667V2.64009C4.5872 2.864 4.08226 3.15988 3.62402 3.51963L3.20523 3.27738C2.47373 2.857 1.46356 3.12934 1.04319 3.85688L0.252315 5.22567C0.0425091 5.58928 -0.0143887 6.0213 0.0941198 6.42684C0.202628 6.83237 0.467669 7.17825 0.831023 7.3885L1.23081 7.61967C1.1455 8.20319 1.1455 8.79602 1.23081 9.37954L0.831023 9.61071C0.467775 9.82126 0.202858 10.1673 0.0943716 10.5729C-0.0141151 10.9785 0.042685 11.4106 0.252315 11.7743ZM2.8854 9.59092C2.79601 9.23415 2.75055 8.8678 2.75002 8.5C2.75002 8.13425 2.79594 7.76692 2.88461 7.40909C2.92636 7.2423 2.91263 7.06646 2.84549 6.90818C2.77835 6.7499 2.66146 6.61781 2.51252 6.53192L1.62348 6.01734L2.41356 4.64854L3.32002 5.17263C3.46785 5.25817 3.63943 5.29345 3.80901 5.27318C3.97859 5.25291 4.13702 5.17818 4.26052 5.06021C4.7961 4.55082 5.44195 4.17181 6.14786 3.95267C6.31001 3.90316 6.45199 3.80291 6.55289 3.66666C6.65379 3.53042 6.70829 3.36538 6.70836 3.19584V2.16667H8.29169V3.19584C8.29176 3.36538 8.34626 3.53042 8.44716 3.66666C8.54806 3.80291 8.69004 3.90316 8.85219 3.95267C9.55796 4.17213 10.2037 4.55109 10.7395 5.06021C10.8632 5.17795 11.0216 5.25252 11.1911 5.27279C11.3606 5.29305 11.5321 5.25791 11.68 5.17263L12.5857 4.64934L13.3774 6.01813L12.4875 6.53192C12.3387 6.61791 12.2219 6.75001 12.1547 6.90826C12.0876 7.06651 12.0738 7.2423 12.1154 7.40909C12.2041 7.76692 12.25 8.13425 12.25 8.5C12.25 8.86496 12.2041 9.23229 12.1146 9.59092C12.0731 9.75779 12.087 9.93365 12.1543 10.0919C12.2216 10.2502 12.3385 10.3822 12.4875 10.4681L13.3766 10.9819L12.5865 12.3507L11.68 11.8274C11.5322 11.7417 11.3606 11.7064 11.191 11.7266C11.0214 11.7469 10.863 11.8217 10.7395 11.9398C10.2039 12.4492 9.5581 12.8282 8.85219 13.0473C8.69004 13.0968 8.54806 13.1971 8.44716 13.3333C8.34626 13.4696 8.29176 13.6346 8.29169 13.8042L8.29327 14.8333H6.70836V13.8042C6.70829 13.6346 6.65379 13.4696 6.55289 13.3333C6.45199 13.1971 6.31001 13.0968 6.14786 13.0473C5.44209 12.8279 4.79631 12.4489 4.26052 11.9398C4.13726 11.8214 3.97873 11.7464 3.80899 11.7263C3.63926 11.7061 3.46758 11.7419 3.32002 11.8282L2.41436 12.3523L1.62269 10.9835L2.51252 10.4681C2.66151 10.3822 2.77848 10.2502 2.84576 10.0919C2.91303 9.93365 2.92695 9.75779 2.8854 9.59092Z" fill="#1C9CD2"/>
</svg>
