<svg width="10" height="10" viewBox="0 0 10 10" fill="none" xmlns="http://www.w3.org/2000/svg">
<path d="M0.6495 7.79786C0.8655 8.4639 1.522 8.88893 2.2225 8.88893H2.25C2.31427 9.20261 2.48484 9.48449 2.73291 9.68692C2.98098 9.88936 3.29132 9.99995 3.6115 10C3.84 10 4.0535 9.9425 4.2425 9.84349C4.32138 9.80024 4.38701 9.73635 4.43237 9.65866C4.47772 9.58098 4.5011 9.49242 4.5 9.40246V0.512875C4.50101 0.398318 4.46254 0.286907 4.39105 0.197387C4.31957 0.107866 4.21944 0.045699 4.1075 0.0213431C3.85666 -0.0273823 3.59674 0.00794259 3.368 0.12185C2.996 0.299861 2.778 0.697388 2.778 1.11091V1.13842C2.49961 1.08159 2.21048 1.11152 1.94963 1.22416C1.68877 1.3368 1.46873 1.52673 1.31919 1.76834C1.16964 2.00995 1.09778 2.29162 1.11331 2.57534C1.12883 2.85907 1.23099 3.13121 1.406 3.35506C1.01404 3.41648 0.656938 3.61597 0.399121 3.91754C0.141303 4.21911 -0.000250216 4.6029 3.3203e-07 4.99967C3.3203e-07 5.58871 0.3055 6.10524 0.7665 6.40576C0.5515 6.79129 0.481 7.27882 0.6495 7.79786ZM8.594 3.35506C8.76901 3.13121 8.87117 2.85907 8.88669 2.57534C8.90222 2.29162 8.83036 2.00995 8.68081 1.76834C8.53127 1.52673 8.31123 1.3368 8.05037 1.22416C7.78952 1.11152 7.50039 1.08159 7.222 1.13842V1.11091C7.222 0.697888 7.0035 0.299861 6.6315 0.12185C6.40294 0.00790872 6.14318 -0.0274202 5.8925 0.0213431C5.78061 0.0457849 5.68053 0.107976 5.60906 0.197477C5.53759 0.286978 5.49908 0.398341 5.5 0.512875V9.40196C5.5 9.58447 5.596 9.75798 5.758 9.84299C5.947 9.9425 6.16 10 6.3885 10C6.70875 9.99993 7.01915 9.88927 7.26722 9.68673C7.5153 9.48419 7.68583 9.2022 7.75 8.88843H7.778C8.478 8.88843 9.135 8.4634 9.351 7.79735C9.5195 7.27832 9.449 6.79079 9.234 6.40526C9.46884 6.25352 9.66196 6.04541 9.79575 5.7999C9.92955 5.55438 9.99977 5.27928 10 4.99967C10.0002 4.6029 9.8587 4.21911 9.60088 3.91754C9.34306 3.61597 8.98596 3.41648 8.594 3.35506Z" fill="#888"/>
</svg>
