<svg width="10" height="10" viewBox="0 0 10 10" fill="none" xmlns="http://www.w3.org/2000/svg">
<path d="M3.60032 0.200043L3.60032 9.79996C3.60032 9.91049 3.70542 10 3.83521 10L6.18373 10C6.31352 10 6.41862 9.91049 6.41862 9.79996L6.41862 0.200042C6.41862 0.0895097 6.31352 -2.75973e-07 6.18373 -2.70299e-07L3.83506 -1.67636e-07C3.70542 -1.61969e-07 3.60032 0.0895098 3.60032 0.200043ZM0.00822808 4.1722L-2.54741e-07 4.1722L-8.74413e-09 9.79996C-3.91261e-09 9.91049 0.105106 10 0.234898 10L2.58341 10C2.7132 10 2.81831 9.91049 2.81831 9.79996L2.81831 4.1722L2.81008 4.1722C2.7972 4.12934 2.76796 4.09134 2.72696 4.06417C2.68596 4.03701 2.63551 4.02222 2.58356 4.02213L0.234742 4.02213C0.125444 4.02213 0.0344658 4.08599 0.00822808 4.1722ZM7.18169 2.90002L7.18169 9.79996C7.18169 9.91049 7.2868 10 7.41659 10L9.7651 10C9.89489 10 10 9.91049 10 9.79996L10 2.90002C10 2.78949 9.89489 2.69998 9.7651 2.69998L7.41659 2.69998C7.2868 2.69998 7.18169 2.78949 7.18169 2.90002Z" fill="#202731"/>
</svg>
