<?xml version="1.0" encoding="iso-8859-1"?>
<!-- Generator: Adobe Illustrator 17.1.0, SVG Export Plug-In . SVG Version: 6.00 Build 0)  -->
<!DOCTYPE svg PUBLIC "-//W3C//DTD SVG 1.1//EN" "http://www.w3.org/Graphics/SVG/1.1/DTD/svg11.dtd">
<svg version="1.1" id="Capa_1" xmlns="http://www.w3.org/2000/svg" x="0px" y="0px"
     viewBox="0 0 376.775 376.775" style="enable-background:new 0 0 376.775 376.775;" xml:space="preserve">
<path d="M87.639,86.627V66.678c0-8.151,6.859-14.731,17.699-17.15C116.763,20.557,145.012,0,177.993,0
	c32.939,0,61.101,20.502,72.555,49.414c11.143,2.32,18.09,8.98,18.09,17.264v19.949c0,7.98-6.443,14.54-16.896,17.078
	c-7.744,22.483-25.343,40.656-48.536,48.499c-2.073,6.602-8.249,11.571-15.526,11.571h-19.216c-8.971,0-16.27-7.53-16.27-16.501
	c0-8.97,7.299-16.499,16.27-16.499h19.216c3.987,0,7.644,1.507,10.477,3.897c23.82-8.396,39.999-30.858,39.999-56.585
	c0-24.956-15.298-46.408-37.004-55.476c-10.634,19.366-27.819,33.509-47.575,39.035c-4.788,1.346-9.763-1.455-11.103-6.242
	c-1.339-4.787,1.434-9.753,6.221-11.092c13.651-3.818,25.732-13.177,34.073-26.124c-1.578-0.125-3.26-0.188-4.87-0.188
	c-33.132,0-60.26,26.955-60.26,60.087v17.224c0,2.645-0.998,5.155-3.014,6.865c-2.017,1.711-4.521,2.444-7.127,2.014
	C95.442,102.189,87.639,95.296,87.639,86.627z M316.639,333.775c0,4.971-4.029,9-9,9h-115c-4.971,0-9-4.029-9-9v-69
	c0-4.971,4.029-9,9-9h115c4.971,0,9,4.029,9,9V333.775z M201.639,324.775h97v-51h-97V324.775z M147.767,331.775H74.491
	l23.774-98.045c3.653-15.023,22.955-27.992,43.357-29.602c6.952,11.05,21.07,18.267,36.688,18.267
	c15.619,0,29.739-7.311,36.691-18.36c20.402,1.608,39.706,14.438,43.357,29.46c1.173,4.83,6.036,7.789,10.87,6.612
	c4.83-1.174,7.794-6.074,6.62-10.903c-5.914-24.334-34.519-43.429-65.121-43.429h-1.237c-3.844,0-7.264,2.471-8.513,6.106
	c-2.119,6.173-10.586,12.437-22.668,12.437c-12.079,0-20.545-6.271-22.665-12.444c-1.248-3.636-4.668-6.099-8.512-6.099h-1.236
	c-30.601,0-59.206,19.09-65.122,43.424L54.349,337.918c-0.12,0.449-0.207,0.919-0.258,1.393c-0.119,1.105-0.03,2.201,0.239,3.233
	c0.244,0.938,0.636,1.819,1.149,2.611c1.061,1.645,2.655,2.948,4.611,3.624c0.327,0.114,0.662,0.209,1.005,0.285
	c0.654,0.146,1.308,0.465,1.952,0.465c0.09,0,0.179,0.246,0.268,0.246h84.451c4.971,0,9-4.029,9-9S152.737,331.775,147.767,331.775z
	 M313.736,358.775H186.378c-4.971,0-9,4.029-9,9s4.029,9,9,9h127.358c4.971,0,9-4.029,9-9S318.707,358.775,313.736,358.775z
	 M170.164,83.775c0-4.971-4.029-9-9-9h-10c-4.971,0-9,4.029-9,9s4.029,9,9,9h10C166.135,92.775,170.164,88.746,170.164,83.775z
	 M195.462,92.775h9.999c4.971,0,9-4.029,9-9s-4.029-9-9-9h-9.999c-4.971,0-9,4.029-9,9S190.491,92.775,195.462,92.775z"/>
<g>
</g>
<g>
</g>
<g>
</g>
<g>
</g>
<g>
</g>
<g>
</g>
<g>
</g>
<g>
</g>
<g>
</g>
<g>
</g>
<g>
</g>
<g>
</g>
<g>
</g>
<g>
</g>
<g>
</g>
</svg>
