<?xml version="1.0" standalone="no"?><!DOCTYPE svg PUBLIC "-//W3C//DTD SVG 1.1//EN" "http://www.w3.org/Graphics/SVG/1.1/DTD/svg11.dtd"><svg class="icon" height="512" viewBox="0 0 1260 1024" version="1.1" xmlns="http://www.w3.org/2000/svg"><path d="M994.999389 921.719731 47.230984 921.719731C20.860351 921.719731 0 942.265208 0 968.084813L0 976.979981C0 1001.933684 20.860351 1023.345064 47.230984 1023.345064L994.999389 1023.345064C1021.370021 1023.345064 1042.230373 1001.933684 1042.230373 976.979981L1042.230373 968.084813C1042.230373 942.265208 1021.370021 921.719731 994.999389 921.719731L994.999389 921.719731 994.999389 921.719731ZM562.442297 522.617919C654.227842 699.025643 875.03269 768.533907 1054.982738 678.558883 1234.854067 588.583859 1306.645163 372.029799 1213.993716 195.622075 1122.208171 19.214351 901.403323-51.159814 721.453275 39.759829 541.581946 129.734853 470.656752 346.210195 562.442297 522.617919L562.442297 522.617919 562.442297 522.617919ZM768.762977 128.790233C897.782281 64.713532 1056.793259 114.54222 1123.152791 241.121256 1188.567704 368.487475 1137.636959 523.48382 1008.617656 588.583859 878.653732 653.60518 719.642754 603.697774 654.227842 476.331555 587.947028 349.752519 638.799054 193.890273 768.762977 128.790233L768.762977 128.790233 768.762977 128.790233ZM47.230984 715.950078 582.436747 715.950078C547.958129 686.509432 517.021834 652.66056 491.595821 614.403464L47.230984 614.403464C20.860351 614.403464 0 635.736125 0 660.689828L0 669.584996C0 695.483319 20.860351 715.950078 47.230984 715.950078L47.230984 715.950078 47.230984 715.950078ZM47.230984 412.176135 418.860107 412.176135C417.049586 396.117601 416.183684 380.059066 416.183684 364.000532 416.183684 345.344293 417.049586 328.419858 419.804726 310.550802L47.230984 310.550802C20.860351 310.550802 0 331.09628 0 356.915884L0 365.811053C0 391.630657 20.860351 412.176135 47.230984 412.176135L47.230984 412.176135 47.230984 412.176135ZM47.230984 104.78115 497.027385 104.78115C523.398017 66.445335 555.200213 32.596463 592.433972 3.234535L47.230984 3.234535C20.860351 3.234535 0 24.567196 0 49.520899L0 58.416068C0 84.31439 20.860351 104.78115 47.230984 104.78115L47.230984 104.78115 47.230984 104.78115ZM1254.848517 952.970898 1151.255226 754.285894C1139.447481 732.874514 1112.210947 723.979346 1090.405976 735.550937L1079.54285 740.903781C1057.65916 751.609471 1048.606555 778.294977 1059.5484 800.572257L1163.141691 998.391361C1174.949437 1020.668641 1202.18597 1029.56381 1223.990941 1017.992219L1234.854067 1012.639374C1256.659038 1001.933684 1265.790362 975.248179 1254.848517 952.970898L1254.848517 952.970898Z" /></svg>