<?xml version="1.0"?>
<svg xmlns="http://www.w3.org/2000/svg" viewBox="0 0 80 80">
    <path d="M 45 9.7929688 L 9 16.615234 L 9 17.443359 L 9 63.384766 L 45 70.207031 L 45 63 L 69 63 L 69 17 L 45 17 L 45 9.7929688 z M 43 12.207031 L 43 67.792969 L 11 61.728516 L 11 18.271484 L 43 12.207031 z M 40 15 A 1 1 0 0 0 39 16 A 1 1 0 0 0 40 17 A 1 1 0 0 0 41 16 A 1 1 0 0 0 40 15 z M 40 19 A 1 1 0 0 0 39 20 A 1 1 0 0 0 40 21 A 1 1 0 0 0 41 20 A 1 1 0 0 0 40 19 z M 45 19 L 67 19 L 67 61 L 45 61 L 45 53 L 49 53 L 49 51 L 45 51 L 45 45 L 49 45 L 49 43 L 45 43 L 45 37 L 49 37 L 49 35 L 45 35 L 45 29 L 49 29 L 49 27 L 45 27 L 45 19 z M 40 23 A 1 1 0 0 0 39 24 A 1 1 0 0 0 40 25 A 1 1 0 0 0 41 24 A 1 1 0 0 0 40 23 z M 40 27 A 1 1 0 0 0 39 28 A 1 1 0 0 0 40 29 A 1 1 0 0 0 41 28 A 1 1 0 0 0 40 27 z M 51 27 L 51 29 L 62 29 L 62 27 L 51 27 z M 17.455078 31 L 22.722656 40.035156 L 16.964844 49.068359 L 21.814453 49.068359 L 24.939453 43.234375 C 25.157453 42.672375 25.296469 42.251609 25.355469 41.974609 L 25.404297 41.974609 C 25.529297 42.562609 25.651531 42.967547 25.769531 43.185547 L 28.882812 49.068359 L 33.707031 49.068359 L 28.138672 39.958984 L 33.556641 31 L 29.019531 31 L 26.146484 36.367188 C 25.869484 37.064188 25.680078 37.590359 25.580078 37.943359 L 25.53125 37.943359 C 25.37225 37.354359 25.192234 36.845969 24.990234 36.417969 L 22.40625 31 L 17.455078 31 z M 40 31 A 1 1 0 0 0 39 32 A 1 1 0 0 0 40 33 A 1 1 0 0 0 41 32 A 1 1 0 0 0 40 31 z M 40 35 A 1 1 0 0 0 39 36 A 1 1 0 0 0 40 37 A 1 1 0 0 0 41 36 A 1 1 0 0 0 40 35 z M 51 35 L 51 37 L 62 37 L 62 35 L 51 35 z M 40 39 A 1 1 0 0 0 39 40 A 1 1 0 0 0 40 41 A 1 1 0 0 0 41 40 A 1 1 0 0 0 40 39 z M 40 43 A 1 1 0 0 0 39 44 A 1 1 0 0 0 40 45 A 1 1 0 0 0 41 44 A 1 1 0 0 0 40 43 z M 51 43 L 51 45 L 62 45 L 62 43 L 51 43 z M 40 47 A 1 1 0 0 0 39 48 A 1 1 0 0 0 40 49 A 1 1 0 0 0 41 48 A 1 1 0 0 0 40 47 z M 40 51 A 1 1 0 0 0 39 52 A 1 1 0 0 0 40 53 A 1 1 0 0 0 41 52 A 1 1 0 0 0 40 51 z M 51 51 L 51 53 L 62 53 L 62 51 L 51 51 z M 40 55 A 1 1 0 0 0 39 56 A 1 1 0 0 0 40 57 A 1 1 0 0 0 41 56 A 1 1 0 0 0 40 55 z M 40 59 A 1 1 0 0 0 39 60 A 1 1 0 0 0 40 61 A 1 1 0 0 0 41 60 A 1 1 0 0 0 40 59 z M 40 63 A 1 1 0 0 0 39 64 A 1 1 0 0 0 40 65 A 1 1 0 0 0 41 64 A 1 1 0 0 0 40 63 z"/>
</svg>
