<?xml version="1.0"?>
<svg xmlns="http://www.w3.org/2000/svg" viewBox="0 0 50 50">
    <path d="M 25 3 C 22.794 3 21 4.794 21 7 C 21 8.858 22.28 10.410422 24 10.857422 L 24 14 L 15.03125 14 C 10.60225 14 7 17.60225 7 22.03125 L 7 26 L 2 26 L 2 38 L 7 38 L 7 47 L 15 47 L 35 47 L 43 47 L 43 38 L 48 38 L 48 26 L 43 26 L 43 22.03125 C 43 17.60225 39.39675 14 34.96875 14 L 26 14 L 26 10.857422 C 27.721 10.410422 29 8.858 29 7 C 29 4.794 27.206 3 25 3 z M 25 5 C 26.103 5 27 5.897 27 7 C 27 8.103 26.103 9 25 9 C 23.897 9 23 8.103 23 7 C 23 5.897 23.897 5 25 5 z M 15.03125 16 L 34.96875 16 C 38.29475 16 41 18.70525 41 22.03125 L 41 26 L 41 38 L 41 45 L 35 45 L 35 37 L 15 37 L 15 45 L 9 45 L 9 38 L 9 26 L 9 22.03125 C 9 18.70525 11.70525 16 15.03125 16 z M 18.5 22 C 16.019 22 14 24.019 14 26.5 C 14 28.981 16.019 31 18.5 31 C 20.981 31 23 28.981 23 26.5 C 23 24.019 20.981 22 18.5 22 z M 31.5 22 C 29.019 22 27 24.019 27 26.5 C 27 28.981 29.019 31 31.5 31 C 33.981 31 36 28.981 36 26.5 C 36 24.019 33.981 22 31.5 22 z M 18.5 24 C 19.878 24 21 25.121 21 26.5 C 21 27.879 19.878 29 18.5 29 C 17.122 29 16 27.879 16 26.5 C 16 25.121 17.122 24 18.5 24 z M 31.5 24 C 32.879 24 34 25.121 34 26.5 C 34 27.879 32.879 29 31.5 29 C 30.121 29 29 27.879 29 26.5 C 29 25.121 30.121 24 31.5 24 z M 4 28 L 7 28 L 7 36 L 4 36 L 4 28 z M 43 28 L 46 28 L 46 36 L 43 36 L 43 28 z M 17 39 L 21 39 L 21 45 L 17 45 L 17 39 z M 23 39 L 27 39 L 27 45 L 23 45 L 23 39 z M 29 39 L 33 39 L 33 45 L 29 45 L 29 39 z"/>
</svg>
