<?xml version="1.0" encoding="utf-8"?>
<!-- Svg Vector Icons : http://www.onlinewebfonts.com/icon -->
<!DOCTYPE svg PUBLIC "-//W3C//DTD SVG 1.1//EN" "http://www.w3.org/Graphics/SVG/1.1/DTD/svg11.dtd">
<svg version="1.1" xmlns="http://www.w3.org/2000/svg" xmlns:xlink="http://www.w3.org/1999/xlink" x="0px" y="0px" viewBox="0 0 1000 1000" enable-background="new 0 0 1000 1000" xml:space="preserve">
<metadata> Svg Vector Icons : http://www.onlinewebfonts.com/icon </metadata>
<g><g transform="translate(0.000000,511.000000) scale(0.100000,-0.100000)"><path d="M4711.8,4008.4C3522,3926.6,2412,3276.6,1739.5,2272.8c-370-549.9-609.2-1267.4-643.9-1911.3l-12.3-245.3L590.6,106L100,95.7l721.6-1124.3c398.6-617.4,731.8-1124.3,742-1124.3c10.2,0,343.4,507,742.1,1124.3L3027.3,95.7l-476.3,6.1l-476.3,4.1v149.2c0,310.7,106.3,746.1,267.8,1095.7c259.6,562.2,782.9,1095.7,1355.3,1386c202.4,102.2,582.6,224.9,819.7,263.7c296.4,47,740,42.9,1013.9-10.2c619.4-122.7,1093.6-378.2,1547.5-834.1c139-141,255.5-251.4,259.6-247.3c2,4.1,126.8,194.2,273.9,423.2l267.8,419.1l-96.1,100.2c-55.2,55.2-179.9,169.7-282.1,255.5C6725.3,3761,5733.9,4079.9,4711.8,4008.4z"/><path d="M7692.2,1246.6L6966.5,116.2l480.4-6.1l480.4-4.1l-12.3-231c-14.3-276-96.1-615.3-214.6-899.5c-368-881.1-1157.1-1531.1-2109.7-1741.7c-233-51.1-780.9-63.4-1032.3-24.5c-686.9,110.4-1341,474.3-1778.5,987.4l-110.4,130.8l-49.1-75.6c-26.6-42.9-153.3-239.2-280.1-435.4l-229-357.7l175.8-167.6c605.1-578.5,1343.1-938.3,2160.7-1058.9c288.2-40.9,813.6-40.9,1108,2c1719.2,249.4,3062.2,1596.6,3313.7,3321.9c18.4,120.6,32.7,292.3,32.7,384.3V106l498.8,4.1l498.8,6.1l-723.7,1124.3c-396.6,617.4-729.8,1126.4-740,1130.4C8426.1,2373,8090.9,1868.1,7692.2,1246.6z"/><path d="M4670.9,269.5v-1798.9H4998H5325V269.5v1798.9H4998h-327.1V269.5z"/><path d="M5979.2-57.6v-1471.8h327.1h327.1V-57.6v1471.8h-327.1h-327.1V-57.6z"/><path d="M3362.6-384.6v-1144.8h327.1h327.1v1144.8V760.1h-327.1h-327.1V-384.6z"/></g></g>
</svg>