<?xml version="1.0" encoding="UTF-8" standalone="no"?>
<svg
		id="Layer_1"
		data-name="Layer 1"
		viewBox="0 0 32 32"
		version="1.1"
		sodipodi:docname="c9832f8d-70ee-47b3-8a14-2a4d0ebe8091.svg"
		width="32"
		height="32"
		inkscape:version="1.1.1 (3bf5ae0d25, 2021-09-20)"
		xmlns:inkscape="http://www.inkscape.org/namespaces/inkscape"
		xmlns:sodipodi="http://sodipodi.sourceforge.net/DTD/sodipodi-0.dtd"
		xmlns="http://www.w3.org/2000/svg"
		xmlns:svg="http://www.w3.org/2000/svg"
		xmlns:rdf="http://www.w3.org/1999/02/22-rdf-syntax-ns#"
		xmlns:cc="http://creativecommons.org/ns#"
		xmlns:dc="http://purl.org/dc/elements/1.1/">
	<sodipodi:namedview
			id="namedview11"
			pagecolor="#ffffff"
			bordercolor="#666666"
			borderopacity="1.0"
			inkscape:pageshadow="2"
			inkscape:pageopacity="0.0"
			inkscape:pagecheckerboard="0"
			showgrid="false"
			inkscape:zoom="7.1510601"
			inkscape:cx="-28.527239"
			inkscape:cy="28.037801"
			inkscape:window-width="2048"
			inkscape:window-height="1084"
			inkscape:window-x="0"
			inkscape:window-y="0"
			inkscape:window-maximized="1"
			inkscape:current-layer="Layer_1" />
	<defs
			id="defs4">
		<style
				id="style2">.cls-1{fill:#141f38;}</style>
	</defs>
	<title
			id="title6">documents-icon</title>
	<path
			class="cls-1"
			d="M 19.294094,0.7433125 H 13.4657 A 4.1543295,3.8299232 0 0 0 9.38407,3.8742748 4.1543295,3.8299232 0 0 0 6.0606059,6.9382134 4.1543295,3.8299232 0 0 0 2.664442,10.701114 v 16.851662 a 4.1543295,3.8299232 0 0 0 4.1543298,3.829922 H 18.450894 a 4.1543295,3.8299232 0 0 0 4.081629,-3.130962 4.1543295,3.8299232 0 0 0 3.323464,-3.063937 4.1543295,3.8299232 0 0 0 3.396163,-3.7629 V 9.9351283 Z M 26.05137,9.169143 H 22.605223 A 2.4951943,2.3003476 0 0 1 20.112626,6.8711896 V 3.6803848 Z M 18.450894,29.85073 H 6.8187718 A 2.4951943,2.3003476 0 0 1 4.3261745,27.552776 V 10.701114 A 2.4945451,2.2997492 0 0 1 5.9879056,8.5372057 V 24.488837 a 4.1543295,3.8299232 0 0 0 4.1543304,3.829922 H 20.79809 a 2.4945451,2.2997492 0 0 1 -2.347196,1.531971 z m 3.323464,-3.06394 H 10.142236 A 2.4951943,2.3003476 0 0 1 7.6496381,24.488837 V 7.6371746 A 2.4945451,2.2997492 0 0 1 9.3113694,5.470874 V 21.424899 A 4.1543295,3.8299232 0 0 0 13.4657,25.254821 h 10.655854 a 2.4945451,2.2997492 0 0 1 -2.347196,1.531969 z m 5.816062,-5.361891 a 2.4951943,2.3003476 0 0 1 -2.492598,2.297952 H 13.4657 A 2.4951943,2.3003476 0 0 1 10.973101,21.424899 V 4.5732359 A 2.4951943,2.3003476 0 0 1 13.4657,2.2752818 h 4.985194 v 4.5959078 a 4.1543295,3.8299232 0 0 0 4.154329,3.8299244 H 27.59042 Z M 15.12743,13.765052 a 0.83086591,0.76598466 0 0 1 0.830867,-0.765986 h 3.323463 a 0.83086629,0.765985 0 1 1 0,1.53197 H 15.958297 A 0.83086591,0.76598466 0 0 1 15.12743,13.765052 Z m 7.477793,2.297954 a 0.83086591,0.76598466 0 0 1 0,1.531968 h -6.646926 a 0.83086591,0.76598466 0 0 1 0,-1.531968 z m 0.8062,3.829922 a 0.83086591,0.76598466 0 0 1 -0.832163,0.765985 h -6.620963 a 0.83086591,0.76598466 0 0 1 0,-1.531968 h 6.620963 a 0.83086591,0.76598466 0 0 1 0.832163,0.765983 z"
			id="path8"
			style="fill:#000000;stroke-width:0.0623255" />
</svg>
