<?xml version="1.0" encoding="UTF-8" standalone="no"?>
<svg
   enable-background="new 0 0 91 91"
   height="32"
   id="Layer_1"
   version="1.1"
   viewBox="0 0 32 32"
   width="32"
   xml:space="preserve"
   sodipodi:docname="group.svg"
   inkscape:version="1.1 (c4e8f9ed74, 2021-05-24)"
   xmlns:inkscape="http://www.inkscape.org/namespaces/inkscape"
   xmlns:sodipodi="http://sodipodi.sourceforge.net/DTD/sodipodi-0.dtd"
   xmlns="http://www.w3.org/2000/svg"
   xmlns:svg="http://www.w3.org/2000/svg"><defs
     id="defs13" /><sodipodi:namedview
     id="namedview11"
     pagecolor="#ffffff"
     bordercolor="#666666"
     borderopacity="1.0"
     inkscape:pageshadow="2"
     inkscape:pageopacity="0.0"
     inkscape:pagecheckerboard="0"
     showgrid="false"
     width="32px"
     inkscape:zoom="8.2747253"
     inkscape:cx="9.184595"
     inkscape:cy="45.560425"
     inkscape:window-width="2560"
     inkscape:window-height="1406"
     inkscape:window-x="0"
     inkscape:window-y="0"
     inkscape:window-maximized="1"
     inkscape:current-layer="Layer_1" /><g
     id="g8"
     transform="matrix(0.46996453,0,0,0.47480737,-5.4298619,-5.5150085)"><path
       d="m 46.252,22.97 c -6.738,0 -12.219,5.484 -12.219,12.223 0,2.725 0.907,5.236 2.42,7.27 -2.98,2.084 -4.777,5.191 -4.777,8.521 v 17.369 h 3.4 v -17.37 c 0,-2.371 1.436,-4.619 3.804,-6.068 2.052,1.561 4.601,2.498 7.372,2.498 2.806,0 5.385,-0.959 7.451,-2.557 2.427,1.449 3.897,3.719 3.897,6.127 V 68.352 H 61 V 50.983 C 61,47.6 59.161,44.467 56.11,42.385 57.589,40.364 58.473,37.881 58.473,35.192 58.474,28.454 52.991,22.97 46.252,22.97 Z m 0,21.045 c -4.863,0 -8.818,-3.959 -8.818,-8.822 0,-4.865 3.955,-8.822 8.818,-8.822 4.864,0 8.822,3.957 8.822,8.822 0,4.863 -3.958,8.822 -8.822,8.822 z"
       id="path2" /><path
       d="m 18.976,48.233 c 0,-1.043 0.596,-2.037 1.579,-2.768 1.26,0.838 2.768,1.33 4.391,1.33 4.394,0 7.969,-3.572 7.969,-7.965 0,-4.395 -3.575,-7.969 -7.969,-7.969 -4.393,0 -7.965,3.574 -7.965,7.969 0,1.529 0.453,2.943 1.202,4.156 -1.642,1.359 -2.607,3.242 -2.607,5.246 v 10.084 h 3.4 z m 5.969,-13.97 c 2.52,0 4.568,2.049 4.568,4.568 0,2.516 -2.049,4.564 -4.568,4.564 -2.518,0 -4.565,-2.049 -4.565,-4.564 0,-2.519 2.048,-4.568 4.565,-4.568 z"
       id="path4" /><path
       d="m 74.422,42.931 c 0.729,-1.201 1.172,-2.596 1.172,-4.1 0,-4.395 -3.574,-7.969 -7.966,-7.969 -4.394,0 -7.969,3.574 -7.969,7.969 0,4.393 3.575,7.965 7.969,7.965 1.646,0 3.178,-0.502 4.448,-1.361 1.01,0.73 1.621,1.738 1.621,2.799 v 10.084 h 3.4 V 48.233 c 0.001,-2.039 -0.991,-3.945 -2.675,-5.302 z m -6.794,0.465 c -2.52,0 -4.569,-2.049 -4.569,-4.564 0,-2.52 2.05,-4.568 4.569,-4.568 2.518,0 4.565,2.049 4.565,4.568 0,2.515 -2.047,4.564 -4.565,4.564 z"
       id="path6" /></g></svg>
