<?xml version="1.0" encoding="UTF-8" standalone="no"?>
<svg
   version="1.1"
   x="0px"
   y="0px"
   viewBox="0 0 32 32"
   enable-background="new 0 0 1000 1000"
   xml:space="preserve"
   id="svg10"
   sodipodi:docname="help.svg"
   width="32"
   height="32"
   inkscape:version="1.1.2 (0a00cf5339, 2022-02-04)"
   xmlns:inkscape="http://www.inkscape.org/namespaces/inkscape"
   xmlns:sodipodi="http://sodipodi.sourceforge.net/DTD/sodipodi-0.dtd"
   xmlns="http://www.w3.org/2000/svg"
   xmlns:svg="http://www.w3.org/2000/svg"><defs
   id="defs14" /><sodipodi:namedview
   id="namedview12"
   pagecolor="#ffffff"
   bordercolor="#666666"
   borderopacity="1.0"
   inkscape:pageshadow="2"
   inkscape:pageopacity="0.0"
   inkscape:pagecheckerboard="0"
   showgrid="false"
   inkscape:zoom="6.984"
   inkscape:cx="63.502291"
   inkscape:cy="61.998855"
   inkscape:window-width="2342"
   inkscape:window-height="1253"
   inkscape:window-x="2719"
   inkscape:window-y="106"
   inkscape:window-maximized="0"
   inkscape:current-layer="svg10" />
  <g
   fill="#000000"
   id="g8"
   transform="matrix(0.03029434,0,0,0.03094914,0.9664424,0.71307519)">
      <path
   d="M 500,10 C 229.4,10 10,229.4 10,500 10,770.6 229.4,990 500,990 770.6,990 990,770.6 990,500 990,229.4 770.6,10 500,10 Z m 0,939.2 C 251.9,949.2 50.8,748.1 50.8,500 50.8,251.9 251.9,50.8 500,50.8 748.1,50.8 949.2,251.9 949.2,500 949.2,748.1 748.1,949.2 500,949.2 Z"
   id="path2" /><path
   d="m 449.2,245.1 c 0.4,-24.9 23.9,-44.8 52.6,-44.5 28.7,0.3 51.7,20.8 51.3,45.6 -0.4,24.9 -23.9,44.8 -52.6,44.5 -28.2,-0.3 -50.9,-20 -51.3,-44.5 z"
   id="path4" /><path
   d="m 537.5,717.1 0.3,-365.2 c 0,-11.7 1.1,-21.3 -8,-21.3 H 427.3 v 7.4 c 19.4,-0.1 34.9,3.6 34.9,16.5 l -0.3,362.7 c 0,7.6 -13.5,15.7 -34.2,15.7 0,0 -0.1,7.2 -0.1,11.5 h 147.3 c 0,0.4 0,-11.5 0,-11.5 -24.3,-0.2 -37.4,-8.1 -37.4,-15.8 z"
   id="path6" />
  </g>
</svg>
