<?xml version="1.0" encoding="utf-8"?>
<svg version="1.1" id="Layer_1" xmlns="http://www.w3.org/2000/svg" x="0px" y="0px"
     viewBox="0 0 192 192" style="enable-background:new 0 0 192 192;" xml:space="preserve">
<style type="text/css">
	.st0{fill:#373737;}
</style>
<g>
	<g>
		<path class="st0" d="M24.4,96.6c-0.7,0-1.3-0.3-1.8-0.8c-1-1-0.9-2.6,0.1-3.5l71.6-69.4c1-0.9,2.5-0.9,3.5,0l20.6,20V30.8
			c0-1.4,1.1-2.5,2.5-2.5h19.6c1.4,0,2.5,1.1,2.5,2.5v35.9l26.4,25.6c1,1,1,2.5,0.1,3.5c-1,1-2.5,1-3.5,0.1l-27.1-26.3
			c-0.5-0.5-0.8-1.1-0.8-1.8V33.3h-14.6v15.5c0,1-0.6,1.9-1.5,2.3c-0.9,0.4-2,0.2-2.7-0.5L96,28.1L26.2,95.9
			C25.7,96.3,25.1,96.6,24.4,96.6z"/>
	</g>
	<g>
		<path class="st0" d="M147.4,169.9h-32.2c-1.4,0-2.5-1.1-2.5-2.5V116H79.3v51.3c0,1.4-1.1,2.5-2.5,2.5H44.6c-1.4,0-2.5-1.1-2.5-2.5
			V92.5c0-1.4,1.1-2.5,2.5-2.5c1.4,0,2.5,1.1,2.5,2.5v72.4h27.2v-51.3c0-1.4,1.1-2.5,2.5-2.5h38.3c1.4,0,2.5,1.1,2.5,2.5v51.3h27.2
			V94.5c0-1.4,1.1-2.5,2.5-2.5c1.4,0,2.5,1.1,2.5,2.5v72.9C149.9,168.7,148.8,169.9,147.4,169.9z"/>
	</g>
</g>
</svg>
