<?xml version="1.0" encoding="UTF-8" standalone="no"?>
<!-- Generator: Adobe Illustrator 19.0.0, SVG Export Plug-In . SVG Version: 6.00 Build 0)  -->

<svg
   xmlns:dc="http://purl.org/dc/elements/1.1/"
   xmlns:cc="http://creativecommons.org/ns#"
   xmlns:rdf="http://www.w3.org/1999/02/22-rdf-syntax-ns#"
   xmlns:svg="http://www.w3.org/2000/svg"
   xmlns="http://www.w3.org/2000/svg"
   xmlns:sodipodi="http://sodipodi.sourceforge.net/DTD/sodipodi-0.dtd"
   xmlns:inkscape="http://www.inkscape.org/namespaces/inkscape"
   version="1.1"
   id="Layer_1"
   x="0px"
   y="0px"
   viewBox="0 0 32 32"
   xml:space="preserve"
   sodipodi:docname="optimization-svgrepo-com.svg"
   width="32"
   height="32"
   inkscape:version="0.92.5 (2060ec1f9f, 2020-04-08)"><metadata
   id="metadata29"><rdf:RDF><cc:Work
       rdf:about=""><dc:format>image/svg+xml</dc:format><dc:type
         rdf:resource="http://purl.org/dc/dcmitype/StillImage" /><dc:title></dc:title></cc:Work></rdf:RDF></metadata><defs
   id="defs27" /><sodipodi:namedview
   pagecolor="#ffffff"
   bordercolor="#666666"
   borderopacity="1"
   objecttolerance="10"
   gridtolerance="10"
   guidetolerance="10"
   inkscape:pageopacity="0"
   inkscape:pageshadow="2"
   inkscape:window-width="1868"
   inkscape:window-height="1144"
   id="namedview25"
   showgrid="false"
   inkscape:zoom="13.423059"
   inkscape:cx="31.457628"
   inkscape:cy="6.4960579"
   inkscape:window-x="0"
   inkscape:window-y="67"
   inkscape:window-maximized="0"
   inkscape:current-layer="Layer_1" />
<g
   id="g20"
   transform="matrix(0.06060512,0,0,0.06096668,0.37249335,0.28614256)">
	<g
   id="g18">
		<g
   id="g16">
			<path
   d="m 287.119,493.833 -0.673,0.085 c -4.429,0.554 -7.572,4.595 -7.019,9.025 0.512,4.09 3.994,7.082 8.012,7.082 0.335,0 0.673,-0.022 1.013,-0.064 l 0.742,-0.096 c 4.427,-0.572 7.553,-4.627 6.979,-9.054 -0.572,-4.428 -4.636,-7.56 -9.054,-6.978 z"
   id="path2"
   inkscape:connector-curvature="0" />
			<path
   d="m 259.103,495.812 c -0.033,0 -0.068,0 -0.101,10e-4 -1,0.012 -2,0.018 -3.002,0.018 C 123.756,495.832 16.168,388.244 16.168,256 16.168,123.756 123.756,16.168 256,16.168 c 132.244,0 239.832,107.588 239.832,239.832 0,36.543 -8.004,71.624 -23.789,104.27 -1.945,4.019 -0.261,8.854 3.759,10.797 4.016,1.942 8.854,0.261 10.797,-3.759 C 503.453,332.451 512,295.001 512,256 512,187.621 485.372,123.333 437.019,74.982 388.667,26.628 324.379,0 256,0 187.621,0 123.333,26.628 74.981,74.982 26.628,123.333 0,187.621 0,256 0,324.379 26.628,388.667 74.981,437.018 123.333,485.372 187.621,512 256,512 c 1.067,0 2.134,-0.006 3.2,-0.019 4.464,-0.054 8.039,-3.718 7.984,-8.182 -0.054,-4.432 -3.661,-7.987 -8.081,-7.987 z"
   id="path4"
   inkscape:connector-curvature="0" />
			<path
   d="m 430.08,278.636 h -13.129 c -3.885,0 -7.219,2.763 -7.943,6.578 -1.414,7.459 -3.394,14.867 -5.885,22.022 -1.468,4.216 0.76,8.825 4.977,10.293 4.215,1.466 8.825,-0.76 10.293,-4.977 2.018,-5.795 3.732,-11.74 5.119,-17.748 h 6.569 c 21.397,0 38.804,-17.407 38.804,-38.804 0,-21.397 -17.407,-38.804 -38.804,-38.804 h -6.565 c -4.266,-18.541 -11.521,-36.048 -21.63,-52.202 l 4.649,-4.648 c 15.129,-15.13 15.129,-39.748 0,-54.879 -15.131,-15.128 -39.75,-15.127 -54.879,0 l -4.648,4.649 C 330.855,100.006 313.346,92.752 294.806,88.486 V 81.92 c 0,-21.397 -17.407,-38.804 -38.804,-38.804 -21.397,0 -38.804,17.407 -38.804,38.804 v 6.565 c -18.541,4.266 -36.049,11.521 -52.202,21.63 l -4.649,-4.649 c -15.13,-15.13 -39.748,-15.128 -54.877,0 -7.33,7.33 -11.365,17.074 -11.365,27.44 0,10.365 4.037,20.109 11.365,27.438 l 4.648,4.649 c -10.11,16.152 -17.364,33.662 -21.631,52.202 H 81.92 c -21.397,0 -38.804,17.407 -38.804,38.804 0,21.397 17.407,38.804 38.804,38.804 h 6.565 c 4.266,18.541 11.522,36.049 21.631,52.202 l -4.648,4.648 c -7.33,7.33 -11.365,17.075 -11.365,27.439 0,10.365 4.037,20.11 11.365,27.44 15.129,15.128 39.747,15.128 54.877,0 l 4.649,-4.649 c 16.153,10.11 33.662,17.364 52.202,21.63 v 6.565 c 0,21.397 17.407,38.804 38.804,38.804 21.397,0 38.804,-17.407 38.804,-38.804 v -6.569 c 6.003,-1.386 11.95,-3.101 17.748,-5.119 4.217,-1.467 6.445,-6.076 4.978,-10.292 -1.466,-4.217 -6.075,-6.447 -10.292,-4.978 -7.163,2.493 -14.572,4.472 -22.025,5.885 -3.816,0.724 -6.578,4.059 -6.578,7.943 v 13.129 c 0,12.481 -10.155,22.636 -22.636,22.636 -12.482,0 -22.636,-10.155 -22.636,-22.636 v -13.129 c 0,-3.885 -2.763,-7.219 -6.577,-7.942 -20.996,-3.983 -40.617,-12.112 -58.32,-24.164 -3.211,-2.188 -7.52,-1.781 -10.266,0.966 l -9.288,9.288 c -8.826,8.827 -23.187,8.827 -32.011,0 -4.276,-4.275 -6.63,-9.959 -6.63,-16.007 0,-6.046 2.354,-11.731 6.63,-16.007 l 9.288,-9.288 c 2.745,-2.745 3.152,-7.056 0.966,-10.265 -12.051,-17.702 -20.181,-37.323 -24.164,-58.32 -0.724,-3.815 -4.059,-6.577 -7.943,-6.577 H 81.92 c -12.482,0 -22.636,-10.155 -22.636,-22.636 0,-12.481 10.154,-22.636 22.636,-22.636 h 13.128 c 3.884,0 7.219,-2.763 7.943,-6.577 3.984,-20.996 12.113,-40.618 24.164,-58.32 2.185,-3.21 1.78,-7.52 -0.966,-10.265 l -9.288,-9.289 c -4.276,-4.275 -6.63,-9.959 -6.63,-16.006 0,-6.047 2.354,-11.732 6.63,-16.007 8.826,-8.827 23.185,-8.827 32.011,0 l 9.288,9.288 c 2.747,2.746 7.056,3.153 10.266,0.966 17.702,-12.053 37.324,-20.182 58.319,-24.165 3.816,-0.723 6.577,-4.058 6.577,-7.942 V 81.92 c 0,-12.481 10.154,-22.636 22.636,-22.636 12.481,0 22.636,10.155 22.636,22.636 v 13.129 c 0,3.885 2.763,7.219 6.578,7.942 20.996,3.983 40.617,12.112 58.318,24.164 3.211,2.188 7.522,1.78 10.266,-0.966 l 9.288,-9.288 c 8.825,-8.826 23.186,-8.828 32.011,0 8.826,8.826 8.826,23.187 0,32.011 l -9.288,9.288 c -2.745,2.747 -3.151,7.057 -0.966,10.266 12.052,17.702 20.181,37.323 24.164,58.318 0.723,3.816 4.058,6.578 7.942,6.578 h 13.131 c 12.481,0 22.636,10.155 22.636,22.636 0.002,12.482 -10.153,22.638 -22.634,22.638 z"
   id="path6"
   inkscape:connector-curvature="0" />
			<path
   d="m 319.077,487.453 -0.856,0.231 c -4.312,1.159 -6.867,5.594 -5.709,9.906 0.97,3.609 4.236,5.988 7.802,5.988 0.695,0 1.401,-0.091 2.104,-0.279 l 0.906,-0.246 c 4.308,-1.174 6.849,-5.617 5.676,-9.924 -1.172,-4.309 -5.625,-6.845 -9.923,-5.676 z"
   id="path8"
   inkscape:connector-curvature="0" />
			<path
   d="m 410.254,337.606 c -0.003,-0.002 -0.005,-0.004 -0.008,-0.008 -5.599,-5.599 -13.043,-8.682 -20.961,-8.682 -5.145,0 -10.09,1.302 -14.459,3.75 l -14.808,-14.808 c 27.804,-46.557 21.683,-107.89 -18.368,-147.941 -47.283,-47.28 -124.213,-47.28 -171.493,0 -22.904,22.904 -35.518,53.356 -35.518,85.747 0,32.391 12.614,62.842 35.518,85.745 22.903,22.904 53.355,35.519 85.745,35.519 22.263,0 43.611,-5.961 62.22,-17.123 l 14.782,14.782 c -2.447,4.37 -3.75,9.315 -3.75,14.46 0,7.916 3.084,15.36 8.675,20.952 l 93.081,93.32 c 5.779,5.778 13.369,8.667 20.96,8.667 7.591,0 15.181,-2.89 20.96,-8.667 l 30.488,-30.488 c 11.556,-11.557 11.557,-30.362 0.008,-41.914 z m -95.085,4.883 c -0.314,0.183 -0.62,0.389 -0.912,0.618 -17.129,11.483 -37.268,17.652 -58.354,17.652 -28.072,0 -54.463,-10.933 -74.313,-30.784 -19.849,-19.849 -30.781,-46.241 -30.781,-74.312 0,-28.071 10.931,-54.463 30.781,-74.312 20.488,-20.489 47.4,-30.733 74.313,-30.733 26.912,0 53.825,10.244 74.313,30.733 36.117,36.117 40.401,92.199 12.85,133.05 -0.033,0.048 -0.067,0.098 -0.099,0.147 -3.684,5.443 -7.933,10.612 -12.75,15.429 -4.674,4.674 -9.713,8.854 -15.048,12.512 z m 16.433,7.927 c 3.487,-2.796 6.839,-5.8 10.047,-9.007 3.221,-3.221 6.219,-6.576 9.001,-10.053 l 11.959,11.959 -19.056,19.055 z m 160.283,110.981 -30.488,30.488 c -5.253,5.255 -13.8,5.254 -19.046,0.008 l -93.081,-93.32 c -2.545,-2.544 -3.947,-5.928 -3.947,-9.526 0,-3.599 1.402,-6.984 3.947,-9.527 l 30.488,-30.488 c 2.544,-2.544 5.927,-3.946 9.526,-3.946 3.597,0 6.979,1.4 9.52,3.94 l 93.081,93.318 c 5.254,5.252 5.254,13.801 0,19.053 z"
   id="path10"
   inkscape:connector-curvature="0" />
			<path
   d="m 196.833,196.594 c -32.571,32.572 -32.571,85.569 0,118.141 16.286,16.284 37.678,24.427 59.07,24.427 21.392,0 42.784,-8.143 59.07,-24.427 32.571,-32.572 32.571,-85.569 0,-118.141 -32.573,-32.571 -85.569,-32.571 -118.14,0 z M 303.541,303.3 c -13.136,13.134 -30.384,19.701 -47.638,19.7 -17.25,-0.002 -34.505,-6.568 -47.636,-19.698 -26.266,-26.267 -26.266,-69.008 0,-95.274 26.267,-26.267 69.009,-26.267 95.273,0 26.267,26.265 26.267,69.006 10e-4,95.272 z"
   id="path12"
   inkscape:connector-curvature="0" />
			<path
   d="m 360.267,472.044 -0.766,0.37 c -4.025,1.933 -5.723,6.762 -3.791,10.786 1.39,2.897 4.282,4.589 7.294,4.589 1.174,0 2.365,-0.257 3.492,-0.798 l 0.815,-0.392 c 4.019,-1.946 5.7,-6.78 3.754,-10.799 -1.943,-4.019 -6.776,-5.702 -10.798,-3.756 z"
   id="path14"
   inkscape:connector-curvature="0" />
		</g>
	</g>
</g>
<g
   id="g22"
   transform="translate(0,-480)">
</g>
</svg>