<svg height="480pt" viewBox="-31 0 479 480" width="480pt" xmlns="http://www.w3.org/2000/svg"><path d="m272.5 456c0 4.417969-3.582031 8-8 8h-240c-4.417969 0-8-3.582031-8-8v-432c0-4.417969 3.582031-8 8-8h49.753906l4.964844 19.878906c1.78125 7.125 8.183594 12.125 15.527344 12.121094h99.507812c7.34375.003906 13.746094-4.996094 15.527344-12.121094l4.964844-19.878906h49.753906c4.417969 0 8 3.582031 8 8v72h16v-72c0-13.253906-10.746094-24-24-24h-240c-13.253906 0-24 10.746094-24 24v432c0 13.253906 10.746094 24 24 24h240c13.253906 0 24-10.746094 24-24v-8h-16zm-78.246094-424h-99.507812l-4-16h107.507812zm0 0"/><path d="m88.5 72h16v16h-16zm0 0"/><path d="m120.5 72h16v16h-16zm0 0"/><path d="m152.5 72h16v16h-16zm0 0"/><path d="m184.5 72h16v16h-16zm0 0"/><path d="m256.5 176c-53.019531 0-96 42.980469-96 96s42.980469 96 96 96 96-42.980469 96-96c-.058594-52.996094-43.003906-95.941406-96-96zm0 176c-41.0625-.050781-75.4375-31.148438-79.59375-72h7.59375v-16h-7.59375c.875-8.578125 3.144531-16.957031 6.722656-24.800781l6.519532 3.761719 8-13.855469-6.488282-3.746094c5.046875-6.984375 11.179688-13.117187 18.167969-18.160156l3.742187 6.488281 13.859376-8-3.761719-6.519531c7.84375-3.578125 16.222656-5.847657 24.800781-6.71875v7.550781h16v-7.59375c8.578125.875 16.953125 3.144531 24.800781 6.722656l-3.761719 6.519532 13.855469 8 3.746094-6.488282c6.988281 5.042969 13.121094 11.179688 18.167969 18.167969l-6.488282 3.742187 8 13.859376 6.519532-3.761719c3.574218 7.84375 5.84375 16.222656 6.71875 24.800781h-7.527344v16h7.59375c-4.140625 40.863281-38.519531 71.976562-79.59375 72.03125zm0 0"/><path d="m266.78125 250.398438c-3.203125-1.5625-6.71875-2.382813-10.28125-2.398438-13.253906 0-24 10.746094-24 24s10.746094 24 24 24 24-10.746094 24-24c-.015625-3.5625-.835938-7.078125-2.398438-10.28125l23.664063-23.664062-11.3125-11.3125zm-10.28125 29.601562c-4.417969 0-8-3.582031-8-8s3.582031-8 8-8 8 3.582031 8 8-3.582031 8-8 8zm0 0"/><path d="m256.5 232v-16c-30.914062.035156-55.964844 25.085938-56 56h16c.027344-22.082031 17.917969-39.972656 40-40zm0 0"/><path d="m216.5 312h80v16h-80zm0 0"/><path d="m409.8125 240.113281-30.914062-5.152343c-2.433594-8.074219-5.667969-15.886719-9.644532-23.320313l18.207032-25.496094c2.277343-3.183593 1.917968-7.546875-.847657-10.3125l-33.945312-33.9375c-2.765625-2.769531-7.128907-3.128906-10.3125-.855469l-25.488281 18.207032c-7.4375-3.980469-15.25-7.210938-23.328126-9.644532l-5.152343-30.914062c-.640625-3.855469-3.976563-6.6875-7.886719-6.6875h-48c-3.910156 0-7.246094 2.832031-7.886719 6.6875l-5.152343 30.914062c-8.074219 2.429688-15.886719 5.664063-23.320313 9.644532l-25.496094-18.207032c-3.183593-2.273437-7.546875-1.914062-10.3125.855469l-33.9375 33.9375c-2.769531 2.765625-3.128906 7.128907-.855469 10.3125l18.207032 25.496094c-3.976563 7.433594-7.210938 15.246094-9.644532 23.320313l-30.921874 5.152343c-3.855469.644531-6.679688 3.980469-6.679688 7.886719v48c0 3.90625 2.824219 7.242188 6.679688 7.886719l30.921874 5.152343c2.433594 8.074219 5.667969 15.886719 9.644532 23.320313l-18.207032 25.496094c-2.273437 3.183593-1.914062 7.546875.855469 10.3125l33.9375 33.9375c2.765625 2.769531 7.128907 3.128906 10.3125.855469l25.496094-18.207032c7.433594 3.980469 15.246094 7.214844 23.320313 9.644532l5.152343 30.914062c.640625 3.855469 3.976563 6.6875 7.886719 6.6875h48c3.910156 0 7.246094-2.832031 7.886719-6.6875l5.152343-30.914062c8.078126-2.433594 15.890626-5.664063 23.328126-9.644532l25.488281 18.207032c3.183593 2.273437 7.546875 1.914062 10.3125-.855469l33.945312-33.9375c2.765625-2.765625 3.125-7.128907.847657-10.3125l-18.207032-25.496094c3.976563-7.433594 7.210938-15.246094 9.644532-23.320313l30.914062-5.152343c3.855469-.640625 6.6875-3.976563 6.6875-7.886719v-48c0-3.910156-2.832031-7.246094-6.6875-7.886719zm-9.3125 49.109375-29.238281 4.875c-3.109375.53125-5.617188 2.839844-6.402344 5.894532-2.601563 10.113281-6.617187 19.808593-11.925781 28.800781-1.609375 2.726562-1.460938 6.144531.382812 8.71875l17.222656 24.121093-24.398437 24.367188-24.121094-17.199219c-2.574219-1.839843-5.988281-1.988281-8.710937-.386719-8.996094 5.308594-18.6875 9.328126-28.800782 11.9375-3.050781.789063-5.355468 3.292969-5.886718 6.402344l-4.90625 29.246094h-34.398438l-4.878906-29.238281c-.53125-3.109375-2.835938-5.613281-5.890625-6.402344-10.109375-2.609375-19.804687-6.628906-28.800781-11.933594-2.722656-1.605469-6.136719-1.457031-8.710938.382813l-24.183594 17.191406-24.351562-24.351562 17.199219-24.128907c1.839843-2.574219 1.988281-5.988281.386719-8.710937-5.308594-8.996094-9.328126-18.6875-11.9375-28.800782-.785157-3.054687-3.292969-5.363281-6.402344-5.894531l-29.246094-4.890625v-34.445312l29.246094-4.875c3.109375-.53125 5.617187-2.839844 6.402344-5.894532 2.609374-10.109374 6.628906-19.804687 11.9375-28.800781 1.609374-2.726562 1.460937-6.152343-.386719-8.726562l-17.199219-24.128907 24.351562-24.351562 24.128907 17.199219c2.574219 1.839843 5.988281 1.988281 8.710937.386719 8.996094-5.308594 18.6875-9.328126 28.800782-11.9375 3.050781-.789063 5.355468-3.292969 5.886718-6.402344l4.90625-29.246094h34.398438l4.878906 29.238281c.53125 3.109375 2.835938 5.613281 5.890625 6.402344 10.109375 2.609375 19.804687 6.628906 28.800781 11.933594 2.734375 1.632812 6.179688 1.484375 8.765625-.375l24.121094-17.222657 24.359375 24.351563-17.199219 24.144531c-1.84375 2.574219-1.992187 5.992188-.386719 8.71875 5.3125 8.992188 9.328126 18.6875 11.929688 28.800782.785156 3.054687 3.292969 5.363281 6.398438 5.894531l29.257812 4.890625zm0 0"/><path d="m32.5 112h48v16h-48zm0 0"/><path d="m32.5 144h48v16h-48zm0 0"/><path d="m130.84375 141.65625 11.3125-11.3125-16-16c-1.5-1.5-3.535156-2.34375-5.65625-2.34375h-24v16h20.6875zm0 0"/><path d="m134.15625 429.65625 16-16-11.3125-11.3125-13.65625 13.65625h-28.6875v16h32c2.121094 0 4.15625-.84375 5.65625-2.34375zm0 0"/><path d="m32.5 424c0 13.253906 10.746094 24 24 24s24-10.746094 24-24-10.746094-24-24-24-24 10.746094-24 24zm32 0c0 4.417969-3.582031 8-8 8s-8-3.582031-8-8 3.582031-8 8-8 8 3.582031 8 8zm0 0"/></svg>