<?xml version="1.0" encoding="UTF-8" standalone="no"?>
<svg
   xmlns:dc="http://purl.org/dc/elements/1.1/"
   xmlns:cc="http://creativecommons.org/ns#"
   xmlns:rdf="http://www.w3.org/1999/02/22-rdf-syntax-ns#"
   xmlns:svg="http://www.w3.org/2000/svg"
   xmlns="http://www.w3.org/2000/svg"
   xmlns:sodipodi="http://sodipodi.sourceforge.net/DTD/sodipodi-0.dtd"
   xmlns:inkscape="http://www.inkscape.org/namespaces/inkscape"
   version="1.1"
   id="Layer_1"
   x="0px"
   y="0px"
   width="512px"
   height="512px"
   viewBox="0 0 512 512"
   enable-background="new 0 0 512 512"
   xml:space="preserve"
   sodipodi:docname="refresh-dark.svg"
   inkscape:version="1.0.1 (3bc2e813f5, 2020-09-07)"><metadata
   id="metadata13"><rdf:RDF><cc:Work
       rdf:about=""><dc:format>image/svg+xml</dc:format><dc:type
         rdf:resource="http://purl.org/dc/dcmitype/StillImage" /></cc:Work></rdf:RDF></metadata><defs
   id="defs11" /><sodipodi:namedview
   pagecolor="#ffffff"
   bordercolor="#666666"
   borderopacity="1"
   objecttolerance="10"
   gridtolerance="10"
   guidetolerance="10"
   inkscape:pageopacity="0"
   inkscape:pageshadow="2"
   inkscape:window-width="1891"
   inkscape:window-height="1118"
   id="namedview9"
   showgrid="false"
   inkscape:zoom="0.69605824"
   inkscape:cx="182.94349"
   inkscape:cy="190.09689"
   inkscape:window-x="0"
   inkscape:window-y="0"
   inkscape:window-maximized="0"
   inkscape:current-layer="Layer_1" />
<g
   id="g6"
   style="fill:#cccccc">
	<path
   d="m 479.971,32.18 c -21.72,21.211 -42.89,43 -64.52,64.301 -1.05,1.23 -2.26,-0.16 -3.09,-0.85 C 387.85,71.651 357.781,53.35 325.14,42.791 287.54,30.631 246.691,28.721 208.111,37.201 139.441,51.871 79.3,101.26 51.671,165.81 c 0.031,0.014 0.062,0.025 0.093,0.039 -2.3,4.537 -3.605,9.666 -3.605,15.1 0,18.475 14.977,33.451 33.451,33.451 15.831,0 29.084,-11.002 32.555,-25.773 19.757,-41.979 58.832,-74.445 103.967,-85.527 52.2,-13.17 111.37,1.33 149.4,40.041 -22.03,21.83 -44.391,43.34 -66.33,65.26 59.52,-0.32 119.06,-0.141 178.59,-0.09 0.499,-58.7 0.139,-117.42 0.179,-176.131 z"
   id="path2"
   style="fill:#cccccc" />
	<path
   d="m 431.609,297.5 c -14.62,0 -27.041,9.383 -31.591,22.453 -0.009,-0.004 -0.019,-0.008 -0.027,-0.012 -19.11,42.59 -57.57,76.219 -102.84,88.18 -52.799,14.311 -113.45,0.299 -152.179,-39.051 21.92,-21.76 44.369,-43.01 66.189,-64.869 -59.7,0.049 -119.41,0.029 -179.11,0.01 -0.14,58.6 -0.159,117.189 0.011,175.789 21.92,-21.91 43.75,-43.91 65.79,-65.699 14.109,13.789 29.76,26.07 46.92,35.869 54.739,31.971 123.399,38.602 183.299,17.891 57.477,-19.297 106.073,-63.178 131.212,-118.318 3.645,-5.357 5.776,-11.824 5.776,-18.793 10e-4,-18.473 -14.976,-33.45 -33.45,-33.45 z"
   id="path4"
   style="fill:#cccccc" />
</g>
</svg>
