<?xml version="1.0" encoding="UTF-8" standalone="no"?>

<svg
   version="1.1"
   id="Layer_1"
   x="0px"
   y="0px"
   viewBox="0 0 32.000001 32.000001"
   xml:space="preserve"
   sodipodi:docname="tuning-fork.svg"
   inkscape:version="1.1.1 (3bf5ae0d25, 2021-09-20)"
   width="32"
   height="32"
   xmlns:inkscape="http://www.inkscape.org/namespaces/inkscape"
   xmlns:sodipodi="http://sodipodi.sourceforge.net/DTD/sodipodi-0.dtd"
   xmlns="http://www.w3.org/2000/svg"
   xmlns:svg="http://www.w3.org/2000/svg"><defs
   id="defs45">
	
	
</defs><sodipodi:namedview
   id="namedview43"
   pagecolor="#ffffff"
   bordercolor="#666666"
   borderopacity="1.0"
   inkscape:pageshadow="2"
   inkscape:pageopacity="0.0"
   inkscape:pagecheckerboard="0"
   showgrid="false"
   inkscape:zoom="16"
   inkscape:cx="-8.0625"
   inkscape:cy="10.1875"
   inkscape:window-width="2560"
   inkscape:window-height="1412"
   inkscape:window-x="2560"
   inkscape:window-y="0"
   inkscape:window-maximized="1"
   inkscape:current-layer="Layer_1"
   width="32px" />


<g
   id="g25"
   transform="matrix(0.06243602,0,0,0.06230632,0.69104004,0.83244092)"><g
     id="g17"><path
       style="fill:#4d4d4d"
       d="m 481.6,98.352 c -8,-8 -20.8,-8 -28.8,0 l -192,192 c -4.8,4.8 -12,4.8 -16.8,0 l -46.4,-46.4 c -4.8,-4.8 -4.8,-12 0,-16.8 l 192,-192 c 8,-8 8,-20.8 0,-28.8 -8,-8 -20.8,-8 -28.8,0 l -192,192 c -20.8,20.8 -20.8,54.4 0,75.2 l 8.8,8.8 -141.6,140.8 c -8,8 -8,20.8 0,28.8 8,8 20.8,8 28.8,0 l 141.6,-141.6 8.8,8.8 c 20.8,20.8 54.4,20.8 75.2,0 l 192,-192 c 8,-8 8,-20.8 -0.8,-28.8 z"
       id="path2" /><g
       id="g11"><path
         style="fill:#000000"
         d="m 481.6,98.352 c -8,-8 -20.8,-8 -28.8,0 l -164.8,164.8 -27.2,27.2 c -4.8,4.8 -12,4.8 -16.8,0 l -46.4,-46.4 c -4.8,-4.8 -4.8,-12 0,-16.8 l 27.2,-27.2 164.8,-164.8 c 8,-8 8,-20.8 0,-28.8 -8,-8 -20.8,-8 -28.8,0 L 196,171.152 c -20.8,20.8 -20.8,54.4 0,75.2 l 8.8,8.8 -27.2,27.2 -114.4,113.6 c -8,8 -8,20.8 0,28.8 8,8 20.8,8 28.8,0 l 113.6,-113.6 27.2,-27.2 8.8,8.8 c 20.8,20.8 54.4,20.8 75.2,0 l 164.8,-164.8 c 8.8,-8.8 8.8,-21.6 0,-29.6 z"
         id="path4" /><circle
         style="fill:#000000"
         cx="45.599998"
         cy="442.35199"
         r="45.599998"
         id="circle6" /></g></g><ellipse
     transform="matrix(0.7072,-0.707,0.707,0.7072,-283.624,168.6032)"
     style="fill:#4d4d4d"
     cx="61.750999"
     cy="426.73401"
     rx="16.799999"
     ry="24"
     id="ellipse10" /></g>
</svg>
