<?xml version="1.0" encoding="UTF-8" standalone="no"?>
<svg
   xmlns:dc="http://purl.org/dc/elements/1.1/"
   xmlns:cc="http://creativecommons.org/ns#"
   xmlns:rdf="http://www.w3.org/1999/02/22-rdf-syntax-ns#"
   xmlns:svg="http://www.w3.org/2000/svg"
   xmlns="http://www.w3.org/2000/svg"
   xmlns:sodipodi="http://sodipodi.sourceforge.net/DTD/sodipodi-0.dtd"
   xmlns:inkscape="http://www.inkscape.org/namespaces/inkscape"
   version="1.1"
   id="Layer_1"
   x="0px"
   y="0px"
   width="512px"
   height="512px"
   viewBox="0 0 512 512"
   enable-background="new 0 0 512 512"
   xml:space="preserve"
   sodipodi:docname="upload.svg"
   inkscape:version="1.0.1 (3bc2e813f5, 2020-09-07)"><metadata
   id="metadata13"><rdf:RDF><cc:Work
       rdf:about=""><dc:format>image/svg+xml</dc:format><dc:type
         rdf:resource="http://purl.org/dc/dcmitype/StillImage" /></cc:Work></rdf:RDF></metadata><defs
   id="defs11">
	
	
</defs><sodipodi:namedview
   pagecolor="#ffffff"
   bordercolor="#666666"
   borderopacity="1"
   objecttolerance="10"
   gridtolerance="10"
   guidetolerance="10"
   inkscape:pageopacity="0"
   inkscape:pageshadow="2"
   inkscape:window-width="1846"
   inkscape:window-height="1030"
   id="namedview9"
   showgrid="false"
   inkscape:zoom="1.8007812"
   inkscape:cx="256"
   inkscape:cy="256"
   inkscape:window-x="0"
   inkscape:window-y="0"
   inkscape:window-maximized="0"
   inkscape:current-layer="Layer_1" />
<g
   id="g842"><path
     d="M 446.844,208.875 C 447.625,203.313 448,197.656 448,192 448,121.437 390.594,64 320,64 279.062,64 241.469,83.344 217.656,115.063 209.25,113.031 200.688,112 192,112 130.25,112 80,162.25 80,224 c 0,1.563 0.031,3.094 0.094,4.625 C 33.813,242.375 0,285.313 0,336 0,397.75 50.25,448 112,448 h 272 c 70.594,0 128,-57.406 128,-128 0,-46.656 -25.656,-88.812 -65.156,-111.125 z M 384,416 H 112 c -44.188,0 -80,-35.813 -80,-80 0,-44.187 35.813,-80 80,-80 2.438,0 4.75,0.5 7.125,0.719 -4.5,-10 -7.125,-21.031 -7.125,-32.719 0,-44.188 35.813,-80 80,-80 14.438,0 27.813,4.125 39.5,10.813 C 246,120.25 280.156,96 320,96 c 53.031,0 96,42.969 96,96 0,12.625 -2.594,24.625 -7.031,35.688 40.844,11.062 71.031,48 71.031,92.312 0,53.031 -42.969,96 -96,96 z"
     id="path2" /><polygon
     points="160,288 256,384 352,288 288,288 288,192 224,192 224,288 "
     id="polygon4"
     transform="matrix(1,0,0,-1,0,576)" /></g>
</svg>
