<?xml version="1.0" encoding="utf-8"?>
<!-- Generator: Adobe Illustrator 19.0.0, SVG Export Plug-In . SVG Version: 6.00 Build 0)  -->
<svg version="1.1" id="Layer_1" xmlns="http://www.w3.org/2000/svg" xmlns:xlink="http://www.w3.org/1999/xlink" x="0px" y="0px"
	 viewBox="0 0 96 96" style="enable-background:new 0 0 96 96;" xml:space="preserve">
<style type="text/css">
	.st0{fill:#333333;}
</style>
<g id="XMLID_2_">
	<path id="XMLID_12_" class="st0" d="M44.2,54.1c0,0.1-0.2,0.1-0.4,0c-0.3-0.1-0.6-0.2-1.1-0.4L42,53.4c-1-0.4-2-1-2.9-1.6
		c-0.2-0.1-0.6-0.5-1.4-1.1c-0.8-0.6-1.2-0.9-1.3-1c-1.5,2.3-3,4.3-4.5,6.1c-1.8,2.1-3,3.3-3.5,3.7c-0.1,0-0.3,0.1-0.7,0.1
		c-0.3,0-0.6,0-0.6,0c0.1-0.1,1-1.1,2.7-3.1c0.5-0.5,1.4-1.8,2.9-3.9c1.4-2,2.3-3.3,2.6-4c0.4-0.7,0.9-1.8,1.7-3.3
		c0.8-1.5,1.2-2.4,1.2-2.6c-0.2,0-1.4,0.3-3.7,1.1c-0.2,0-0.5,0.1-0.9,0.3s-0.8,0.2-1.2,0.3c-0.3,0.1-0.5,0.1-0.6,0.2
		c0,0-0.1,0.2-0.1,0.4s0,0.3,0,0.3c-0.1,0.2-0.5,0.4-1,0.5c-0.5,0.2-1,0.2-1.6,0c-0.4-0.1-0.7-0.3-0.9-0.7c-0.1-0.1-0.1-0.4-0.2-0.8
		c0.1,0,0.4-0.1,0.8-0.2c0.4-0.1,0.7-0.1,1-0.2c1.3-0.4,2.5-0.7,3.5-1.1c2.2-0.8,3.4-1.2,3.4-1.2c0.2,0,0.7-0.3,1.4-0.7
		s1.2-0.6,1.5-0.7c0.2-0.1,0.4-0.2,0.7-0.3s0.4-0.2,0.5-0.2c0,0,0.1,0,0.2,0c0,0.3,0,0.6,0,1.1c0,0-0.1,0.3-0.4,0.9
		s-0.6,1.2-0.9,1.8c-0.3,0.6-0.5,1-0.6,1.1c-0.6,1.1-1.4,2.6-2.6,4.4l2.1,0.9c0.3,0.1,1.1,0.5,2.5,1.1c1.4,0.6,2.1,0.9,2.3,0.9
		c0.1,0,0.2,0.3,0.4,0.9C44.2,53.6,44.2,54,44.2,54.1z M37.3,37.8c0.1,0.3,0,0.6-0.1,0.9c-0.3,0.5-0.8,0.9-1.7,1.3
		c-0.7,0.3-1.3,0.4-2,0.4c-0.6-0.1-1.1-0.4-1.6-0.9c-0.3-0.3-0.5-0.8-0.6-1.4l0-0.1c0.1,0.1,0.3,0.1,0.7,0.2c0.4,0,0.7,0,0.9,0
		c0.2,0,0.9-0.2,1.9-0.5c0.8-0.3,1.4-0.4,1.8-0.5C37,37.3,37.2,37.4,37.3,37.8z M60.7,42.1l2.1,7.6l-4.7-1.4L60.7,42.1z M23.6,68.9
		l23.2-7.8V26.6l-23.2,7.8V68.9z M65.1,58.3l3.4,1l-6.1-22l-3.3-1l-7.2,17.9l3.4,1l1.5-3.7l7.1,2.2L65.1,58.3z M48.3,26.1l19.2,6.2
		V19.5L48.3,26.1z M58.7,70.4l5.3,0.4l-1.8,5.4L60.9,74c-2.9,1.9-6,3.1-9.2,3.6c-1.3,0.3-2.3,0.4-3,0.4h-2.8c-1.8,0-4-0.4-6.7-1.3
		s-4.7-1.8-6.1-2.8c-0.2-0.2-0.3-0.3-0.3-0.5c0-0.2,0.1-0.3,0.2-0.5c0.1-0.1,0.3-0.2,0.4-0.2c0.1,0,0.3,0.1,0.6,0.3
		c0.3,0.2,0.7,0.4,1,0.6c0.4,0.2,0.6,0.3,0.7,0.4c1.6,0.8,3.4,1.5,5.3,2.1c1.9,0.5,3.7,0.8,5.3,0.8c2.1,0,4-0.2,5.6-0.5
		s3.4-0.9,5.3-1.7c0.3-0.2,0.7-0.3,1-0.5c0.3-0.2,0.7-0.4,1.1-0.6s0.7-0.4,1-0.6L58.7,70.4z M73.7,34.3v36.1l-25.9-8.2
		c-0.3,0.1-4.5,1.6-12.6,4.3c-8.1,2.7-12.2,4.1-12.3,4.1c-0.3,0-0.5-0.1-0.6-0.4c0,0,0-0.1,0-0.1V33.9c0.1-0.2,0.1-0.3,0.1-0.3
		c0.1-0.1,0.3-0.3,0.7-0.4c2.4-0.8,4-1.3,5-1.7V18.6l18.7,6.6c0,0,1.8-0.6,5.4-1.8c3.5-1.2,7.1-2.4,10.6-3.6S68,18,68.1,18
		c0.4,0,0.7,0.2,0.7,0.7v14L73.7,34.3z"/>
</g>
</svg>
