<?xml version="1.0" encoding="UTF-8"?>
<svg xmlns="http://www.w3.org/2000/svg" width="26" height="26" viewBox="0 0 26 26">
    <path d="M 3 0 C 1.344 0 0 1.343 0 3 L 0 21 C 0 22.656 1.344 24 3 24 L 13.125 24 C 12.764 23.381 12.46625 22.71 12.28125 22 L 3 22 C 2.449 22 2 21.551 2 21 L 2 4 L 22 4 L 22 12.28125 C 22.71 12.46525 23.381 12.764 24 13.125 L 24 3 C 24 1.343 22.656 0 21 0 L 3 0 z M 5 8 L 5 10 L 7 10 L 7 8 L 5 8 z M 9 8 L 9 10 L 19 10 L 19 8 L 9 8 z M 5 12 L 5 14 L 7 14 L 7 12 L 5 12 z M 9 12 L 9 14 L 14.75 14 C 15.915 12.981 17.389 12.29575 19 12.09375 L 19 12 L 9 12 z M 20 14.03125 C 16.7 14.03125 14.03125 16.7 14.03125 20 C 14.03125 23.301 16.7 25.96875 20 25.96875 C 23.3 25.96875 25.96875 23.301 25.96875 20 C 25.96875 16.7 23.3 14.03125 20 14.03125 z M 5 16 L 5 18 L 7 18 L 7 16 L 5 16 z M 9 16 L 9 18 L 12.28125 18 C 12.46625 17.29 12.764 16.619 13.125 16 L 9 16 z M 17.875 16.46875 L 20 18.59375 L 22.125 16.46875 L 23.53125 17.875 L 21.40625 20 L 23.53125 22.125 L 22.125 23.53125 L 20 21.40625 L 17.875 23.53125 L 16.46875 22.125 L 18.59375 20 L 16.46875 17.875 L 17.875 16.46875 z"/>
</svg>