<?xml version="1.0" encoding="UTF-8" standalone="no"?>
<svg
   xmlns:dc="http://purl.org/dc/elements/1.1/"
   xmlns:cc="http://creativecommons.org/ns#"
   xmlns:rdf="http://www.w3.org/1999/02/22-rdf-syntax-ns#"
   xmlns:svg="http://www.w3.org/2000/svg"
   xmlns="http://www.w3.org/2000/svg"
   xmlns:sodipodi="http://sodipodi.sourceforge.net/DTD/sodipodi-0.dtd"
   xmlns:inkscape="http://www.inkscape.org/namespaces/inkscape"
   version="1.1"
   id="Layer_1"
   x="0px"
   y="0px"
   viewBox="0 0 192 192"
   style="enable-background:new 0 0 192 192;"
   xml:space="preserve"
   sodipodi:docname="home-light.svg"
   inkscape:version="1.0.1 (3bc2e813f5, 2020-09-07)"><metadata
   id="metadata19"><rdf:RDF><cc:Work
       rdf:about=""><dc:format>image/svg+xml</dc:format><dc:type
         rdf:resource="http://purl.org/dc/dcmitype/StillImage" /></cc:Work></rdf:RDF></metadata><defs
   id="defs17" /><sodipodi:namedview
   pagecolor="#ffffff"
   bordercolor="#666666"
   borderopacity="1"
   objecttolerance="10"
   gridtolerance="10"
   guidetolerance="10"
   inkscape:pageopacity="0"
   inkscape:pageshadow="2"
   inkscape:window-width="1577"
   inkscape:window-height="1171"
   id="namedview15"
   showgrid="false"
   inkscape:zoom="5.25"
   inkscape:cx="96"
   inkscape:cy="96"
   inkscape:window-x="0"
   inkscape:window-y="0"
   inkscape:window-maximized="0"
   inkscape:current-layer="Layer_1" />
<style
   type="text/css"
   id="style2">
	.st0{fill:#373737;}
</style>
<g
   id="g12"
   style="fill:#cccccc">
	<g
   id="g6"
   style="fill:#cccccc">
		<path
   class="st0"
   d="M24.4,96.6c-0.7,0-1.3-0.3-1.8-0.8c-1-1-0.9-2.6,0.1-3.5l71.6-69.4c1-0.9,2.5-0.9,3.5,0l20.6,20V30.8    c0-1.4,1.1-2.5,2.5-2.5h19.6c1.4,0,2.5,1.1,2.5,2.5v35.9l26.4,25.6c1,1,1,2.5,0.1,3.5c-1,1-2.5,1-3.5,0.1l-27.1-26.3    c-0.5-0.5-0.8-1.1-0.8-1.8V33.3h-14.6v15.5c0,1-0.6,1.9-1.5,2.3c-0.9,0.4-2,0.2-2.7-0.5L96,28.1L26.2,95.9    C25.7,96.3,25.1,96.6,24.4,96.6z"
   id="path4"
   style="fill:#cccccc" />
	</g>
	<g
   id="g10"
   style="fill:#cccccc">
		<path
   class="st0"
   d="M147.4,169.9h-32.2c-1.4,0-2.5-1.1-2.5-2.5V116H79.3v51.3c0,1.4-1.1,2.5-2.5,2.5H44.6c-1.4,0-2.5-1.1-2.5-2.5    V92.5c0-1.4,1.1-2.5,2.5-2.5c1.4,0,2.5,1.1,2.5,2.5v72.4h27.2v-51.3c0-1.4,1.1-2.5,2.5-2.5h38.3c1.4,0,2.5,1.1,2.5,2.5v51.3h27.2    V94.5c0-1.4,1.1-2.5,2.5-2.5c1.4,0,2.5,1.1,2.5,2.5v72.9C149.9,168.7,148.8,169.9,147.4,169.9z"
   id="path8"
   style="fill:#cccccc" />
	</g>
</g>
</svg>
