<?xml version="1.0" encoding="utf-8"?>
<!-- Svg Vector Icons : http://www.onlinewebfonts.com/icon -->
<!DOCTYPE svg PUBLIC "-//W3C//DTD SVG 1.1//EN" "http://www.w3.org/Graphics/SVG/1.1/DTD/svg11.dtd">
<svg version="1.1" xmlns="http://www.w3.org/2000/svg" xmlns:xlink="http://www.w3.org/1999/xlink" x="0px" y="0px" viewBox="0 0 1000 1000" enable-background="new 0 0 1000 1000" xml:space="preserve">
<metadata> Svg Vector Icons : http://www.onlinewebfonts.com/icon </metadata>
<g><path d="M966.7,278.9h-14.6c-11,0-20-9-20-20v-39.1c0.1-11.3-7.8-20.7-18.9-22.9c-151.4-29-289-28.4-393.7,45.4c-18.7,13.2-20.4,13.1-38.9,0C375.7,168.6,238.1,168,86.8,197c-11,2.1-18.9,11.5-18.9,22.9v39.1c0,11-8.9,20-20,20H33.3c-12.8,0-23.3,10.5-23.3,23.3L10.2,770c0,12.8,10.5,23.3,23.3,23.3h395.3c7.3,0,13.3,6,13.3,13.2c0,7.9,5.2,14.3,13.3,14.3h89.1c7.4,0,13.3-6,13.3-13.3c0-7.9,5.1-14.3,13.4-14.3h395.3c12.8,0,23.3-10.5,23.3-23.3l0.2-467.8C990,289.4,979.5,278.9,966.7,278.9z M467.3,747.9C374,689.6,252.5,683,123,704.5c-13.2,2.2-25.2-7.9-25.2-21.3l-0.1-441.8c0-11.5,8.1-21,19.4-23c135.1-22.7,259.5-13.8,350.1,54.7c11.6,8.7,17.8,21.3,17.8,35.8l0.2,429.1C485.1,747.2,475.1,752.7,467.3,747.9z M902.2,683.2c0,13.4-11.9,23.5-25.2,21.3c-129.5-21.6-251-14.9-344.3,43.3c-7.8,4.9-17.9-0.7-17.9-9.9l0.2-429.1c0-14.5,6.2-27.1,17.8-35.8c90.6-68.5,215-77.4,350.1-54.7c11.3,2,19.4,11.6,19.4,23L902.2,683.2z"/><path d="M148.8,573.8v22.8c31.1-8.6,72.3-7.5,119-2c48.9,6.2,104.1,18.1,160,30.3v-22.6c-54.4-12.3-108.1-23.3-156.9-29.6C224.3,566.7,182.3,565.8,148.8,573.8z"/><path d="M148.8,431.9v23c31.1-8.5,72.3-7.5,119-1.9c48.9,6.1,104.1,18.1,160,30.3v-22.9c-54.4-12-108.1-23.2-156.9-29.4C224.3,425.3,182.3,424.1,148.8,431.9z"/><path d="M148.8,304.2V327c31.1-8.5,72.3-7.5,119-1.5c49,6,104.1,17.7,160,29.9v-22.6c-54.4-12-108.1-23.4-156.9-29.4C224.3,297.6,182.3,296.8,148.8,304.2z"/><path d="M729.1,572.7c-48.7,6.3-102.4,17.3-156.9,29.6v22.6c55.9-12.3,111-24.1,160-30.3c46.7-5.5,87.9-6.6,119,2v-22.8C817.7,565.8,775.7,566.7,729.1,572.7z"/><path d="M729.1,431c-48.7,6.1-102.4,17.4-156.9,29.4v22.9c55.9-12.2,111-24.1,160-30.3c46.7-5.6,87.9-6.6,119,1.9v-23C817.7,424.1,775.7,425.3,729.1,431z"/><path d="M729.1,303.4c-48.7,6.1-102.4,17.4-156.9,29.4v22.6c55.9-12.2,111-23.9,160-29.9c46.7-6,87.9-7,119,1.5v-22.8C817.7,296.8,775.7,297.6,729.1,303.4z"/></g>
</svg>